<?xml version="1.0" standalone="no"?>
<!DOCTYPE svg PUBLIC "-//W3C//DTD SVG 20010904//EN"
 "http://www.w3.org/TR/2001/REC-SVG-20010904/DTD/svg10.dtd">
<svg version="1.0" xmlns="http://www.w3.org/2000/svg"
 width="380.000000pt" height="380.000000pt" viewBox="0 0 380.000000 380.000000"
 preserveAspectRatio="xMidYMid meet">
<metadata>
Created by potrace 1.11, written by Peter Selinger 2001-2013
</metadata>
<g transform="translate(0.000000,380.000000) scale(0.100000,-0.100000)"
fill="#000000" stroke="none">
<path d="M2107 3554 c-3 -3 -83 -7 -179 -9 -95 -2 -183 -4 -195 -5 -15 0 -23
-7 -24 -18 0 -11 -2 -12 -6 -4 -4 10 -8 10 -19 1 -8 -6 -14 -7 -14 -2 0 5 -7
10 -15 10 -8 0 -12 -5 -8 -10 3 -5 -3 -6 -16 -2 -11 3 -21 3 -21 -2 0 -4 -11
-9 -25 -10 -53 -4 -60 -7 -73 -22 -8 -9 -11 -10 -7 -3 7 14 -11 17 -20 2 -3
-5 -13 -6 -22 -3 -12 5 -14 3 -8 -8 8 -12 6 -12 -8 0 -13 10 -17 10 -17 1 0
-7 -7 -10 -15 -6 -8 3 -15 1 -15 -4 0 -6 5 -11 10 -11 40 -5 70 -20 64 -32 -5
-9 -4 -9 6 0 8 7 20 9 35 3 13 -5 26 -6 29 -3 3 4 6 1 6 -5 0 -7 -5 -12 -12
-12 -6 0 -8 -3 -5 -6 4 -4 13 -2 20 4 8 7 18 8 23 4 4 -4 3 0 -4 9 -9 12 -9
16 3 16 7 0 14 -3 13 -6 -2 -19 3 -31 13 -31 6 0 8 7 5 16 -3 8 -2 13 3 9 5
-3 12 1 14 7 4 10 6 10 6 1 1 -7 5 -13 11 -13 5 0 7 8 4 18 -5 14 -4 14 4 2
13 -18 5 -33 -15 -26 -8 3 -11 2 -8 -3 3 -6 14 -9 25 -8 10 1 16 5 14 9 -3 4
-1 8 5 8 6 0 8 6 5 14 -3 7 2 16 12 20 13 5 14 4 6 -7 -8 -9 -8 -17 -1 -24 11
-11 52 -6 44 6 -2 4 2 8 10 8 8 0 12 -4 10 -8 -3 -4 6 -6 19 -5 13 0 22 4 19
9 -2 4 8 7 22 7 14 0 24 4 21 9 -6 8 30 25 48 22 5 -1 6 6 2 15 -5 14 -4 15 9
4 21 -17 19 -30 -4 -25 -15 3 -18 0 -14 -13 5 -11 8 -12 11 -4 3 10 7 10 20 0
13 -11 14 -11 8 1 -7 10 -4 12 12 7 11 -4 23 -2 27 4 4 7 12 7 25 0 24 -13 27
-13 33 5 4 8 1 17 -5 21 -7 5 -8 2 -3 -6 6 -9 4 -11 -5 -5 -9 6 -11 4 -5 -5 5
-8 4 -11 -3 -6 -17 10 -3 35 18 33 10 -1 16 -5 14 -9 -3 -4 0 -8 5 -8 6 0 11
5 11 12 0 6 3 8 7 5 3 -4 -2 -17 -13 -29 -11 -13 -12 -18 -3 -11 11 9 19 9 26
2 8 -8 13 -7 18 2 5 8 4 10 -3 5 -7 -4 -12 -3 -12 3 0 5 10 11 23 13 12 2 21
9 20 15 -2 7 4 10 12 7 12 -5 10 -10 -8 -25 -27 -23 -15 -25 18 -3 14 9 22 21
19 26 -4 7 0 7 12 0 11 -5 26 -7 34 -5 13 4 13 3 1 -5 -8 -6 -19 -8 -26 -6 -6
3 -18 -2 -25 -11 -11 -13 -10 -15 8 -12 12 2 25 6 28 10 12 11 24 8 20 -5 -1
-7 -1 -10 1 -6 6 10 53 -1 72 -16 11 -8 13 -8 8 1 -4 6 -3 14 3 18 5 3 10 1
10 -5 0 -7 5 -8 13 -3 6 4 15 8 20 9 4 1 8 3 10 4 6 6 77 5 77 -1 0 -4 8 -6
18 -5 9 2 23 -4 30 -13 8 -9 11 -10 7 -3 -4 7 0 12 10 12 9 0 13 -5 9 -11 -5
-8 -2 -9 11 -2 12 7 31 5 66 -8 27 -11 57 -19 67 -19 34 1 -89 52 -153 64 -5
1 -20 7 -31 14 -12 6 -24 9 -26 7 -3 -3 -22 1 -44 8 -21 7 -46 13 -54 12 -8
-1 -20 2 -25 6 -6 4 -32 9 -58 10 -26 2 -47 6 -47 9 0 4 -11 5 -25 2 -14 -2
-31 1 -38 7 -8 6 -16 8 -20 5z m-139 -76 c-15 -23 -39 -31 -37 -14 0 5 -5 12
-13 17 -9 6 -6 8 9 6 12 0 19 -5 17 -9 -3 -4 -1 -8 4 -8 6 0 12 7 16 15 3 8 8
15 12 15 3 0 0 -10 -8 -22z m268 -8 c8 0 14 5 14 11 0 8 4 8 13 2 6 -6 20 -9
30 -8 9 2 17 -1 17 -7 0 -6 -6 -8 -14 -5 -7 3 -19 0 -26 -6 -10 -9 -11 -9 -6
0 4 8 -2 11 -20 10 -15 -1 -28 4 -30 11 -1 7 0 8 3 2 2 -5 11 -10 19 -10z
m-426 -12 c0 6 5 12 11 12 8 0 8 -5 -1 -15 -13 -16 -30 -11 -30 8 0 7 4 6 10
-3 6 -10 10 -11 10 -2z m-81 -21 c-27 -26 -32 -27 -23 -4 3 9 13 18 22 20 10
3 19 5 21 6 2 0 -7 -9 -20 -22z"/>
<path d="M2883 3468 c-6 -7 -18 -28 -27 -46 -10 -19 -21 -30 -28 -26 -6 4 -8
3 -4 -4 7 -12 -41 -88 -55 -85 -4 2 -5 -5 -2 -14 5 -12 2 -15 -10 -10 -12 4
-14 2 -10 -10 5 -12 3 -14 -8 -8 -12 8 -12 6 0 -9 12 -15 12 -17 0 -14 -8 2
-13 -3 -11 -11 2 -8 -3 -11 -12 -8 -11 4 -13 1 -9 -10 5 -12 3 -14 -7 -8 -8 5
-11 4 -7 -2 8 -12 -25 -53 -42 -53 -6 0 -11 -5 -11 -11 0 -5 -5 -7 -12 -3 -6
4 -8 3 -5 -3 7 -11 -26 -56 -34 -48 -3 2 -11 -5 -18 -17 -9 -15 -9 -18 0 -13
8 6 10 4 5 -4 -5 -7 -14 -10 -21 -7 -7 2 -15 -4 -18 -14 -7 -26 -84 -73 -113
-67 -13 2 -21 1 -19 -3 3 -4 -10 -10 -28 -14 -60 -12 -147 -40 -147 -48 0 -4
-9 -8 -19 -8 -11 0 -26 -6 -33 -13 -27 -25 -66 -46 -94 -49 -16 -2 -31 -5 -34
-9 -3 -3 -30 -18 -60 -33 -30 -16 -59 -35 -63 -42 -4 -8 -14 -14 -22 -14 -7 0
-22 -11 -33 -25 -11 -13 -23 -21 -27 -17 -3 4 -5 2 -4 -3 4 -13 -23 -55 -36
-55 -6 0 -21 -18 -35 -39 -13 -22 -28 -37 -34 -34 -5 3 -6 1 -2 -6 4 -6 0 -23
-8 -36 -18 -27 -6 -35 14 -10 7 9 15 13 18 10 3 -3 13 10 22 29 18 40 109 140
131 144 8 1 6 -4 -6 -14 -11 -8 -19 -20 -17 -25 1 -6 -2 -8 -6 -5 -5 3 -17 -3
-27 -14 -11 -12 -14 -20 -7 -21 27 -3 31 -4 39 -13 4 -5 3 -6 -4 -2 -6 3 -15
1 -19 -5 -5 -8 -9 -8 -14 1 -5 9 -9 9 -14 1 -4 -6 -2 -11 3 -11 6 0 11 -8 11
-17 0 -15 -2 -15 -9 -4 -5 8 -17 16 -25 17 -9 1 -13 -2 -10 -8 3 -5 -2 -16
-12 -23 -11 -8 -15 -15 -10 -15 5 0 3 -7 -4 -15 -7 -8 -16 -12 -21 -9 -5 3 -9
0 -9 -5 0 -6 7 -11 15 -11 8 0 15 5 15 11 0 5 5 7 10 4 6 -4 7 -12 4 -18 -4
-8 -2 -7 7 1 9 8 10 15 4 20 -13 9 -18 32 -7 32 4 0 13 -5 20 -12 9 -9 12 -9
12 0 0 7 -4 12 -10 12 -5 0 -7 7 -4 15 6 14 8 13 19 -2 13 -17 14 -17 20 -1 4
10 11 15 16 12 5 -3 6 3 2 13 -3 10 -3 15 2 11 4 -4 14 -3 22 3 10 9 13 8 13
0 0 -7 5 -9 10 -6 6 3 10 1 10 -6 0 -7 2 -10 5 -7 12 12 -8 36 -26 33 -20 -4
-26 9 -9 20 6 3 10 1 10 -6 0 -10 3 -10 12 -1 17 17 31 15 24 -4 -5 -13 -4
-14 7 -6 10 9 14 8 14 -3 0 -8 -4 -12 -9 -9 -4 3 -8 1 -8 -5 0 -5 6 -12 13
-14 10 -4 10 -6 0 -6 -7 -1 -13 -7 -13 -15 0 -8 -13 -28 -29 -45 -15 -16 -26
-33 -22 -37 3 -4 -28 -4 -69 0 -118 10 -231 10 -238 -1 -6 -8 -33 -23 -52 -28
-3 0 -19 -9 -37 -18 -18 -9 -39 -17 -48 -17 -8 0 -15 -4 -15 -10 0 -5 -7 -10
-15 -10 -8 0 -15 -3 -15 -8 0 -11 -99 -54 -110 -47 -6 3 -10 2 -10 -3 0 -10
-103 -7 -121 4 -8 4 -10 3 -5 -4 7 -11 -12 -16 -51 -15 -7 1 -13 -3 -13 -8 0
-5 -5 -8 -11 -7 -6 2 -13 -5 -14 -14 -2 -10 1 -18 7 -18 6 0 8 -6 5 -14 -3 -7
2 -24 11 -37 9 -13 16 -26 16 -29 -3 -14 23 -40 41 -40 19 -1 19 -1 2 -11 -20
-12 -14 -29 11 -28 14 0 13 2 -3 9 -17 8 -16 8 7 7 24 -1 26 -3 14 -16 -9 -9
-11 -19 -6 -30 13 -24 23 -55 22 -63 -1 -5 3 -8 9 -8 5 0 7 -6 3 -12 -5 -9 -2
-9 9 1 19 15 23 26 5 15 -7 -4 -8 -3 -4 4 4 7 14 12 22 12 8 0 12 -4 9 -10 -3
-5 -1 -10 4 -10 21 0 26 -3 48 -33 47 -63 144 -137 196 -151 35 -8 34 6 0 36
-31 27 -47 48 -67 93 -13 26 -13 30 0 33 8 2 11 8 8 14 -4 6 -1 8 7 6 8 -3 13
-11 11 -17 -3 -13 8 -14 28 -1 13 9 13 10 0 10 -9 0 -11 3 -5 8 6 4 10 18 10
32 0 30 23 34 46 8 14 -15 18 -16 22 -4 3 8 3 17 -1 20 -12 12 -12 46 1 46 8
0 7 4 -3 10 -13 8 -12 10 3 10 9 0 17 4 17 8 0 5 11 15 25 22 13 7 23 16 21
19 -3 3 2 14 9 24 8 12 15 14 20 7 3 -5 11 -7 18 -3 13 8 127 10 132 2 2 -3
20 -4 39 -3 23 2 36 -1 36 -9 0 -7 4 -6 10 3 8 12 12 12 18 2 5 -7 23 -14 40
-15 29 -2 36 -8 33 -29 0 -4 6 -5 14 -2 9 4 15 0 15 -9 0 -8 7 -18 16 -21 8
-3 12 -10 9 -16 -4 -6 1 -7 11 -3 13 5 15 3 9 -7 -5 -9 -4 -11 3 -6 20 12 53
16 47 5 -4 -5 -10 -7 -15 -4 -5 3 -12 1 -15 -5 -4 -6 -3 -10 2 -9 21 4 29 -3
31 -27 1 -14 -1 -23 -6 -21 -4 3 -7 -9 -6 -26 1 -18 -3 -47 -8 -66 -6 -19 -11
-92 -12 -161 -1 -122 -3 -129 -29 -164 -28 -35 -44 -48 -32 -23 4 6 -5 0 -19
-15 -17 -19 -37 -29 -64 -31 -21 -2 -44 -7 -51 -11 -6 -4 -11 -3 -11 1 0 5 -9
9 -20 9 -18 0 -18 -2 -6 -21 14 -21 13 -21 -22 -19 -21 1 -48 6 -61 10 l-24 7
19 -25 c10 -14 22 -24 27 -21 4 2 7 -4 7 -14 0 -13 -8 -18 -25 -18 -14 0 -25
3 -25 6 0 4 -15 10 -34 13 -19 4 -37 12 -40 19 -3 7 -4 3 -3 -8 4 -37 77 -83
120 -76 5 1 6 -3 3 -8 -4 -5 -15 -8 -26 -6 -21 4 -25 -3 -12 -20 11 -15 32
-17 48 -4 10 8 14 8 14 1 0 -6 6 -10 13 -8 6 1 8 1 4 -2 -4 -2 -2 -11 5 -20 7
-9 8 -13 3 -10 -6 4 -17 2 -25 -3 -11 -8 -6 -9 18 -5 44 7 55 10 71 20 10 6
12 5 7 -2 -4 -7 -2 -12 3 -12 6 0 11 5 11 10 0 6 6 10 13 9 25 -3 37 1 35 14
-2 6 5 11 14 9 13 -2 16 2 11 14 -5 13 -3 15 8 9 11 -7 12 -6 2 7 -7 8 -10 18
-6 22 4 4 8 15 8 23 0 9 7 18 15 20 13 4 13 3 0 -6 -8 -5 -11 -13 -7 -17 4 -4
2 -13 -4 -21 -9 -9 -8 -13 0 -13 6 0 12 5 12 10 1 6 2 15 3 20 0 6 7 14 14 19
11 7 11 9 -2 14 -9 4 -13 13 -10 22 8 21 28 19 20 -2 -6 -17 -5 -17 7 -1 8 10
18 14 22 10 5 -4 5 -1 1 6 -4 7 -12 10 -17 7 -5 -4 -8 5 -7 19 1 13 5 23 8 21
11 -6 51 15 45 25 -4 6 -3 10 2 9 21 -4 34 2 27 13 -4 7 -3 8 5 4 6 -4 9 -11
6 -16 -3 -5 11 -9 32 -8 21 1 32 3 26 5 -7 3 -9 12 -5 21 5 15 4 15 -12 0 -21
-22 -23 -22 -23 -3 0 8 3 13 5 10 3 -3 11 0 18 6 9 8 16 5 24 -11 11 -20 13
-20 29 -6 10 9 25 16 34 16 9 0 17 4 17 9 0 5 -8 8 -17 6 -10 -2 -24 -4 -31
-4 -7 -1 -11 -5 -7 -10 3 -5 1 -12 -5 -16 -15 -9 -12 21 3 32 6 6 20 9 30 8 9
-2 17 1 17 6 0 6 4 8 9 4 5 -3 12 -2 15 3 3 5 23 7 44 5 34 -2 41 1 47 20 4
13 8 17 12 10 2 -7 12 -13 21 -13 14 0 15 2 2 10 -8 5 -12 12 -8 15 4 4 17 -5
29 -19 17 -20 26 -23 36 -15 7 6 10 15 7 21 -3 5 -13 4 -22 -4 -13 -11 -15
-11 -9 4 3 9 3 19 -1 21 -4 2 -2 2 5 1 6 -2 14 2 17 9 3 9 5 8 5 -1 1 -7 6
-10 13 -6 7 5 8 3 3 -6 -6 -10 -4 -12 9 -7 10 4 19 1 22 -8 4 -8 10 -15 15
-15 10 0 5 102 -7 121 -5 8 -10 23 -11 34 -3 18 -2 18 8 3 5 -10 15 -18 22
-18 8 0 7 3 -2 9 -7 5 -10 14 -7 20 4 6 4 11 -1 10 -22 -4 -34 3 -43 26 -6 16
-14 23 -25 19 -10 -4 -15 0 -15 10 0 9 5 16 11 16 5 0 7 -4 4 -10 -3 -6 1 -7
9 -4 33 13 15 22 -51 27 -8 0 -8 5 0 18 10 16 12 16 23 1 10 -14 14 -14 28 -2
10 7 16 9 15 4 -4 -21 2 -26 19 -13 15 12 16 12 5 -2 -11 -13 -9 -19 8 -35 22
-19 22 -19 14 6 -4 14 -4 21 1 17 4 -4 9 -29 10 -55 1 -26 3 -47 4 -47 1 0 3
-17 6 -39 2 -21 9 -46 16 -54 8 -10 9 -13 2 -9 -7 4 -14 0 -18 -8 -3 -8 0 -17
6 -21 7 -4 8 -3 4 4 -4 7 -2 12 4 12 7 0 14 -9 17 -20 3 -11 9 -17 14 -14 5 3
1 -8 -9 -25 -23 -41 -8 -51 24 -15 l26 29 -17 -35 c-10 -19 -22 -43 -26 -52
-11 -22 -12 -48 -1 -48 4 0 8 -9 9 -20 1 -13 -2 -18 -9 -14 -7 4 -8 2 -4 -4 4
-7 4 -17 0 -24 -4 -6 -9 -25 -11 -42 -2 -17 -6 -40 -8 -51 -2 -11 -4 -30 -4
-43 -1 -16 -5 -21 -13 -16 -7 4 -10 4 -6 0 3 -4 2 -21 -4 -37 -8 -24 -13 -27
-24 -18 -12 10 -13 9 -8 -5 3 -9 1 -16 -5 -16 -6 0 -10 -3 -10 -7 3 -18 -2
-34 -8 -30 -5 3 -15 -11 -24 -29 -16 -32 -16 -34 0 -30 9 3 28 8 44 12 15 3
32 14 37 23 5 9 10 11 10 5 0 -8 11 -6 35 4 32 15 62 63 50 81 -3 6 22 7 68 2
5 -1 5 -5 2 -11 -3 -5 -1 -10 4 -10 6 0 11 5 11 11 0 8 6 7 18 -2 15 -13 16
-12 4 3 -15 19 -24 70 -11 63 4 -3 9 0 11 7 2 6 12 12 21 14 9 1 15 -2 11 -7
-3 -5 2 -9 10 -9 10 0 13 6 9 18 -3 9 -3 14 1 10 4 -3 8 -12 10 -20 1 -7 5
-19 10 -26 5 -9 1 -19 -10 -28 -18 -13 -18 -14 1 -7 18 6 19 5 6 -11 -9 -10
-23 -15 -34 -12 -10 2 -17 2 -14 -1 8 -7 -25 -43 -35 -37 -4 3 -8 0 -8 -5 0
-6 -7 -11 -15 -11 -17 0 -37 -41 -26 -50 21 -14 39 -140 21 -140 -5 0 -7 -6
-4 -13 5 -14 -63 -107 -79 -107 -6 0 -8 -3 -4 -6 11 -12 -44 -49 -83 -56 -8
-2 -17 -6 -20 -9 -13 -17 -83 -49 -92 -43 -6 4 -8 2 -4 -4 3 -6 -4 -14 -16
-18 -13 -4 -26 -12 -30 -18 -5 -8 -8 -7 -8 2 0 8 -8 6 -22 -7 -17 -17 -24 -18
-37 -8 -12 9 -13 9 -7 -1 4 -7 1 -12 -8 -13 -9 -1 -20 -3 -26 -4 -5 -1 -17 -3
-25 -4 -21 -2 -19 -14 6 -29 12 -8 18 -9 15 -4 -7 11 65 9 83 -2 6 -4 21 0 35
9 16 11 26 12 31 6 5 -8 50 -9 50 -1 0 7 57 5 61 -1 2 -4 -4 -6 -15 -4 -14 3
-18 -1 -14 -12 5 -12 7 -12 14 -1 7 10 9 10 9 -2 0 -12 2 -12 9 -2 9 15 42 13
53 -3 5 -6 8 -3 8 7 0 11 5 15 15 12 8 -4 12 -10 9 -15 -3 -5 0 -9 6 -9 7 0 9
9 5 23 -6 21 -6 21 9 3 9 -11 16 -15 16 -9 0 7 -6 15 -12 20 -17 10 -39 13
-34 5 2 -4 -6 -7 -18 -7 -13 0 -23 5 -23 12 0 6 7 9 15 5 11 -4 13 -1 7 9 -4
8 -5 11 0 7 4 -4 15 -2 23 5 13 9 14 9 8 0 -4 -7 -3 -13 3 -13 5 0 11 3 14 8
2 4 3 3 2 -3 -1 -5 7 -19 18 -29 16 -15 19 -16 14 -3 -3 9 1 21 11 29 11 9 14
10 8 1 -4 -7 -4 -13 1 -14 44 -5 63 -5 63 3 0 4 -4 8 -10 8 -5 0 -10 4 -10 8
0 14 29 10 34 -4 7 -19 -23 -46 -44 -39 -10 3 -21 1 -25 -4 -3 -6 0 -8 8 -5
20 7 32 -15 17 -29 -10 -9 -11 -9 -5 2 5 9 3 12 -6 9 -8 -3 -14 -10 -14 -16 0
-5 -4 -14 -9 -19 -5 -5 -6 -3 -2 5 4 6 2 12 -4 12 -6 0 -8 5 -4 12 4 7 3 8 -5
4 -6 -4 -9 -12 -6 -17 4 -5 3 -10 -2 -10 -4 -1 -21 -3 -37 -5 -38 -4 -60 -13
-53 -20 3 -3 -4 -16 -16 -28 -12 -11 -23 -30 -25 -41 -2 -11 -18 -32 -35 -47
-18 -16 -28 -28 -23 -28 5 0 -1 -8 -12 -19 -12 -10 -22 -22 -22 -26 0 -9 -42
-44 -55 -45 -17 -1 -59 -50 -43 -50 8 0 19 5 26 12 7 7 12 9 12 5 0 -4 13 -1
29 7 16 9 31 13 34 10 5 -5 56 14 100 37 10 5 23 7 29 3 7 -5 8 -2 3 6 -6 10
-4 12 8 7 10 -4 14 -2 11 6 -2 7 -14 13 -24 14 -11 1 -18 -2 -15 -7 3 -5 0
-12 -7 -17 -19 -11 -39 -13 -32 -2 3 5 9 7 14 4 5 -3 11 -1 15 5 3 5 0 10 -7
10 -7 1 -2 7 12 15 21 11 27 11 41 -1 8 -8 22 -14 29 -14 9 0 7 5 -6 15 -18
14 -18 14 3 10 15 -2 24 2 28 14 3 10 12 18 19 18 8 0 12 -6 9 -14 -3 -7 -9
-10 -14 -7 -5 3 -9 -2 -9 -10 0 -8 5 -18 12 -22 6 -4 8 -3 5 3 -9 15 30 43 49
36 11 -4 15 -2 10 5 -3 6 2 13 13 17 11 3 22 13 25 21 3 9 11 12 18 8 7 -5 9
-2 5 9 -3 9 0 18 9 21 9 3 12 2 8 -5 -3 -6 3 -5 15 3 12 7 21 16 21 21 0 4 4
6 9 2 6 -3 8 4 6 15 -2 12 1 20 10 20 8 0 12 -8 9 -22 -2 -13 -2 -17 2 -10 3
6 10 10 15 7 5 -4 6 1 3 9 -3 9 3 17 16 21 12 4 19 9 17 12 -3 2 -14 0 -26 -6
-11 -6 -22 -7 -25 -2 -3 5 4 11 15 14 12 3 18 10 14 17 -3 6 -1 9 6 8 7 -2 13
2 14 7 0 11 45 72 45 62 0 -14 -24 -56 -29 -52 -4 2 -8 -5 -8 -16 -1 -10 3
-19 8 -19 6 0 8 4 4 9 -3 6 3 14 12 20 10 5 16 11 14 13 -7 5 10 48 18 44 3
-3 7 7 6 21 0 14 6 28 13 30 6 3 12 0 12 -7 0 -6 -4 -8 -10 -5 -5 3 -10 1 -10
-5 0 -7 6 -10 13 -7 6 2 11 16 10 31 -2 23 0 25 13 11 19 -19 30 -20 15 -1
-10 12 -8 13 10 9 16 -5 20 -3 14 6 -4 8 1 18 14 27 22 16 30 41 9 28 -8 -5
-9 -2 -5 10 4 10 7 20 7 22 0 2 6 4 14 4 8 0 17 7 20 16 4 10 2 13 -7 7 -6 -4
-21 -8 -32 -10 -11 -1 -14 1 -7 3 6 3 9 11 5 17 -4 8 -1 7 9 -1 13 -11 17 -9
22 12 3 14 13 23 22 22 18 -1 28 29 17 54 -11 28 -11 37 3 37 11 0 11 -3 1
-16 -11 -14 -10 -14 6 -2 14 11 15 16 5 29 -7 9 -8 14 -3 11 6 -3 20 5 32 18
12 13 19 23 15 23 -4 0 1 5 10 11 10 5 15 16 11 25 -3 9 -10 11 -17 6 -6 -4
-23 -13 -38 -20 -26 -11 -28 -10 -26 12 1 15 7 22 15 19 7 -3 13 0 13 6 0 6
11 11 25 11 14 0 25 6 25 13 0 8 3 7 9 -3 6 -8 8 -17 5 -21 -2 -4 0 -10 5 -14
6 -3 8 6 5 21 -4 22 -3 24 9 13 12 -12 26 -40 32 -61 2 -5 3 -20 4 -34 1 -16
5 -23 13 -18 7 5 8 3 4 -5 -5 -7 -15 -10 -23 -6 -13 4 -14 3 -3 -10 8 -10 9
-15 1 -15 -6 0 -11 -5 -11 -11 0 -5 5 -7 10 -4 6 3 10 -1 10 -9 0 -9 -4 -16
-10 -16 -5 0 -10 -5 -10 -11 0 -5 4 -7 10 -4 6 4 7 -2 1 -17 -14 -36 -14 -40
1 -50 9 -7 8 -8 -6 -4 -13 5 -17 2 -12 -9 6 -16 -26 -39 -39 -27 -5 4 -5 1 -1
-6 4 -7 11 -10 16 -7 5 3 12 1 15 -5 4 -6 1 -9 -6 -8 -7 2 -13 -4 -14 -12 0
-8 -11 -20 -23 -26 -17 -8 -20 -13 -10 -17 9 -4 9 -6 1 -6 -7 -1 -10 -8 -6
-16 3 -10 1 -15 -7 -13 -7 2 -15 -3 -17 -10 -8 -22 34 4 48 29 6 11 13 19 15
16 6 -5 79 64 79 75 0 3 14 19 30 35 42 41 71 76 70 86 0 5 8 13 18 18 10 6
14 15 10 22 -4 7 1 6 10 -2 15 -12 17 -12 11 2 -3 9 1 24 10 32 9 9 16 22 16
29 0 7 10 23 21 35 13 14 22 36 21 52 0 16 3 31 8 34 5 3 6 13 3 22 -5 12 -3
14 7 8 10 -6 12 -4 7 9 -6 14 -3 17 10 12 15 -5 15 -4 -1 9 -18 14 -12 20 16
16 4 0 5 6 2 14 -4 8 -1 15 6 15 9 0 9 4 2 13 -5 7 -6 21 -1 32 4 11 8 16 9
10 1 -5 6 1 12 15 16 38 20 97 8 120 -10 18 -8 22 9 27 12 3 21 10 21 15 0 5
3 7 8 5 4 -3 7 6 7 19 0 13 -4 24 -9 24 -5 0 -4 6 1 13 5 6 9 28 8 47 -1 19 2
45 7 58 5 15 4 21 -2 17 -6 -3 -10 0 -10 9 0 8 6 17 13 19 9 4 8 6 -2 6 -11 1
-11 4 0 18 8 9 9 14 3 10 -10 -6 -21 12 -28 48 -5 24 -19 45 -26 40 -5 -3 -11
-1 -15 5 -4 6 -11 7 -17 4 -6 -4 -8 -2 -4 4 4 6 21 8 42 5 34 -6 36 -5 26 14
-6 11 -8 23 -5 27 3 3 1 6 -6 6 -7 0 -10 4 -7 8 3 5 -2 21 -9 36 -8 16 -12 32
-9 37 3 5 -2 9 -11 9 -9 0 -13 5 -10 10 3 6 1 10 -5 10 -7 0 -9 8 -5 20 4 11
2 20 -4 20 -6 0 -11 5 -11 11 0 6 -7 17 -16 26 -8 9 -13 22 -10 29 3 8 0 13
-6 11 -7 -1 -17 8 -23 21 -5 12 -15 22 -23 22 -7 0 -20 13 -30 29 -9 15 -20
29 -25 29 -4 1 -20 13 -35 27 l-27 25 22 6 c13 4 20 10 17 15 -3 5 -2 9 3 10
14 1 37 7 58 14 14 5 16 4 7 -3 -9 -6 0 -9 28 -9 34 0 41 3 37 17 -2 10 2 17
9 17 8 0 14 -4 14 -9 0 -5 5 -6 12 -2 6 4 9 3 5 -2 -6 -10 39 -91 48 -86 13 6
16 1 7 -11 -8 -10 -6 -16 9 -25 17 -11 18 -16 8 -28 -10 -12 -10 -15 2 -12 8
2 13 -4 13 -14 -1 -10 3 -16 9 -15 6 1 11 -3 12 -10 0 -6 4 -15 9 -20 5 -5 6
-3 2 5 -4 7 -2 12 6 12 10 1 9 4 -2 13 -8 7 -16 23 -17 37 -1 23 -10 53 -34
118 -10 26 -41 31 -33 5 5 -15 4 -15 -4 -3 -13 17 -6 30 16 30 15 0 15 2 2 10
-8 5 -11 10 -6 10 5 0 3 6 -3 13 -6 8 -7 18 -3 23 4 5 -4 0 -18 -11 -14 -11
-19 -13 -12 -5 6 8 12 18 12 23 0 4 -6 5 -12 1 -10 -5 -10 -4 -1 6 9 9 7 21
-9 48 -11 20 -28 43 -38 52 -9 8 -20 27 -23 41 -4 15 -18 34 -32 43 -14 9 -25
23 -25 31 0 8 -6 14 -12 12 -7 -1 -12 4 -11 11 2 6 -2 12 -8 12 -6 0 -20 10
-31 23 -11 12 -17 17 -14 11 3 -6 -1 -11 -9 -11 -8 0 -12 8 -10 20 4 16 2 17
-11 6 -8 -7 -14 -8 -13 -3 1 5 1 16 0 24 -1 13 -3 13 -10 1 -8 -12 -16 -7 -44
22 -19 19 -38 33 -41 30 -3 -4 -6 1 -6 10 0 10 -11 19 -27 23 -15 4 -39 18
-53 31 -13 12 -28 23 -32 23 -4 0 -17 10 -29 23 -12 12 -19 15 -15 7 5 -11 3
-10 -6 2 -10 12 -18 14 -32 6 -9 -5 -20 -7 -23 -4 -4 3 -1 6 5 6 7 0 12 5 12
12 0 6 -3 8 -7 5 -3 -4 -13 2 -20 13 -8 11 -19 18 -24 15 -8 -5 -13 23 -12 63
1 6 -3 12 -7 12 -13 0 1 41 16 47 8 3 11 10 7 17 -8 12 -11 27 -15 64 -1 12
-6 22 -10 22 -4 0 -5 9 -3 20 2 11 -1 20 -7 20 -5 0 -7 7 -4 16 3 8 2 13 -3
10 -4 -3 -13 13 -20 34 -6 22 -17 40 -23 40 -6 0 -8 3 -5 7 4 3 3 11 -2 17 -5
6 -20 33 -33 59 -19 36 -27 45 -35 35z m691 -1096 c2 -4 -5 -9 -17 -9 -17 -2
-19 0 -7 7 18 12 18 12 24 2z m143 -122 c10 -15 10 -21 0 -26 -6 -4 -9 -3 -4
1 4 5 0 17 -10 27 -9 10 -12 18 -7 18 5 0 15 -9 21 -20z m-2087 -14 c0 -2 -8
-10 -17 -17 -16 -13 -17 -12 -4 4 13 16 21 21 21 13z m-483 -51 c0 -8 -4 -12
-9 -9 -5 3 -6 10 -3 15 9 13 12 11 12 -6z m426 -30 c-3 -9 -8 -14 -10 -11 -3
3 -2 9 2 15 9 16 15 13 8 -4z m-188 -215 c3 -5 1 -10 -4 -10 -6 0 -11 5 -11
10 0 6 2 10 4 10 3 0 8 -4 11 -10z m989 -266 c3 -8 2 -12 -4 -9 -6 3 -10 10
-10 16 0 14 7 11 14 -7z m-24 -4 c0 -5 -5 -10 -11 -10 -5 0 -7 5 -4 10 3 6 8
10 11 10 2 0 4 -4 4 -10z m840 -130 c0 -5 -5 -10 -11 -10 -5 0 -7 5 -4 10 3 6
8 10 11 10 2 0 4 -4 4 -10z m-10 -26 c0 -8 -19 -13 -24 -6 -3 5 1 9 9 9 8 0
15 -2 15 -3z m467 -69 c0 -8 -4 -12 -9 -9 -5 3 -6 10 -3 15 9 13 12 11 12 -6z
m-769 -83 c13 11 13 9 -1 -13 -10 -14 -14 -29 -10 -32 3 -4 1 -7 -5 -7 -6 0
-14 5 -17 10 -3 6 -2 10 3 10 6 0 8 10 6 23 -2 12 -1 16 2 9 5 -10 9 -10 22 0z
m-138 -72 c8 -5 12 -11 10 -14 -3 -2 -14 2 -24 10 -22 15 -10 19 14 4z m430
-173 c0 -19 -38 -49 -43 -34 -3 7 -8 -1 -12 -16 -5 -19 -12 -26 -22 -22 -10 3
-13 1 -10 -9 3 -8 -1 -17 -9 -20 -9 -3 -13 -10 -9 -15 3 -5 2 -12 -3 -15 -4
-2 -13 4 -20 14 -9 14 -9 21 0 26 7 4 8 3 4 -4 -4 -7 -2 -12 4 -12 6 0 16 14
22 31 7 19 13 27 18 19 5 -8 9 -7 13 4 3 8 1 17 -6 20 -7 2 -3 5 7 5 11 1 16
4 12 8 -3 4 4 13 16 20 29 16 38 16 38 0z m6 -141 c0 -15 -6 -21 -22 -21 -12
0 -20 3 -17 8 2 4 11 7 20 7 12 0 13 3 4 13 -8 10 -7 14 2 14 7 0 13 -10 13
-21z m-141 -22 c-11 -8 -19 -19 -18 -24 2 -5 -9 -18 -22 -29 -14 -10 -24 -23
-23 -28 3 -9 -33 -53 -44 -53 -4 0 -12 9 -18 20 -6 11 -7 19 -3 18 13 -5 57
35 72 64 8 15 17 25 21 23 4 -3 13 2 20 10 7 8 18 15 24 15 6 0 2 -8 -9 -16z
m323 -39 c-3 -3 -9 2 -12 12 -6 14 -5 15 5 6 7 -7 10 -15 7 -18z m-435 -105
c10 -10 9 -12 -5 -7 -16 6 -22 -2 -20 -24 2 -11 -66 -68 -72 -62 -8 9 -7 23 2
21 4 0 15 2 25 7 14 6 15 10 6 21 -9 11 -9 14 0 14 7 0 9 5 6 10 -3 6 1 10 9
10 9 0 16 5 16 11 0 5 -5 7 -12 3 -6 -4 -8 -3 -5 4 9 13 34 10 50 -8z m-78
-37 c0 -18 -5 -28 -15 -28 -9 0 -14 -9 -13 -22 2 -16 -2 -21 -12 -17 -8 4 -15
13 -15 21 0 9 -6 13 -15 9 -8 -3 -14 -2 -14 2 1 4 0 9 -1 12 -1 3 -3 13 -5 23
-3 15 -1 16 11 6 11 -9 14 -9 14 1 0 7 9 2 19 -11 l20 -24 9 25 c5 14 7 29 4
34 -3 5 -1 6 4 3 6 -3 10 -18 9 -34z m-99 -46 c0 -13 -6 -24 -13 -24 -6 0 -9
6 -6 14 3 8 -2 13 -13 14 -18 0 -17 1 1 9 30 13 33 12 31 -13z m-176 -37 c0
-5 -4 -10 -10 -10 -5 0 -10 5 -10 10 0 6 5 10 10 10 6 0 10 -4 10 -10z"/>
<path d="M3140 1110 c-8 -5 -12 -12 -9 -15 4 -3 12 1 19 10 14 17 11 19 -10 5z"/>
<path d="M2985 920 c-3 -5 -2 -10 4 -10 5 0 13 5 16 10 3 6 2 10 -4 10 -5 0
-13 -4 -16 -10z"/>
<path d="M2940 859 c-7 -11 -9 -23 -7 -26 3 -2 8 5 12 16 3 12 11 18 17 15 7
-4 8 -2 4 4 -10 16 -14 15 -26 -9z"/>
<path d="M2766 759 c3 -5 10 -7 15 -4 5 4 9 1 9 -4 0 -6 5 -11 12 -11 9 0 9 3
0 12 -14 14 -44 20 -36 7z"/>
<path d="M840 3449 c-13 -9 -13 -10 0 -8 8 1 38 -2 65 -6 28 -5 53 -8 58 -7 4
1 7 -2 7 -8 0 -5 6 -7 14 -4 8 3 16 -2 19 -13 4 -16 5 -16 6 0 0 9 6 17 12 17
6 0 8 -7 5 -17 -4 -10 -4 -14 0 -10 4 4 19 -3 33 -15 14 -13 20 -15 12 -6 -11
15 -10 17 8 15 12 -1 21 -5 21 -10 0 -4 5 -5 10 -2 6 3 13 -1 16 -9 3 -9 11
-13 17 -9 6 4 7 1 2 -7 -6 -10 -11 -9 -21 5 -12 16 -13 16 -11 -2 1 -15 8 -20
27 -19 14 0 29 5 33 11 6 6 7 4 4 -5 -6 -20 18 -54 32 -46 5 3 19 -7 30 -23
15 -21 18 -32 10 -37 -14 -9 -29 14 -22 35 5 13 3 14 -8 4 -19 -19 -26 -16
-33 12 -4 16 -11 23 -18 19 -6 -4 -8 -3 -4 4 3 6 3 13 -2 16 -4 2 -8 -6 -8
-19 0 -15 5 -21 13 -18 8 3 13 -3 13 -16 0 -14 6 -21 19 -21 10 0 22 -7 25
-16 5 -12 13 -14 34 -9 26 6 26 6 7 -9 -11 -8 -17 -18 -12 -22 4 -4 7 -2 7 5
0 7 9 3 22 -9 12 -11 28 -20 35 -20 7 0 13 -4 13 -10 0 -5 8 -10 17 -10 13 0
14 3 5 12 -7 7 -12 16 -12 21 0 5 7 2 15 -7 8 -8 15 -19 15 -25 0 -5 4 -13 10
-16 5 -3 7 0 4 9 -10 26 7 41 23 20 13 -17 14 -16 10 18 -3 24 0 35 6 31 6 -4
8 0 4 10 -3 9 -1 19 5 23 7 4 8 3 4 -4 -4 -7 -2 -12 4 -12 6 0 4 -10 -5 -24
-10 -15 -12 -26 -6 -30 11 -7 34 28 24 38 -3 3 0 6 8 6 11 0 11 2 -1 10 -12 7
-13 13 -3 28 10 17 8 21 -15 32 -15 6 -28 10 -30 8 -2 -1 -8 5 -13 15 -6 9
-17 17 -25 17 -9 0 -12 5 -8 13 4 6 4 9 0 5 -7 -6 -70 13 -141 43 -36 15 -41
16 -61 18 -9 0 -12 6 -8 13 4 6 3 8 -4 4 -6 -3 -30 -2 -54 4 -72 18 -90 21
-168 25 -41 2 -82 0 -90 -6z m220 -49 c0 -5 -2 -10 -4 -10 -3 0 -8 5 -11 10
-3 6 -1 10 4 10 6 0 11 -4 11 -10z m247 -207 c0 -9 -4 -10 -14 -2 -7 6 -13 12
-13 14 0 1 6 2 13 2 8 0 14 -6 14 -14z m26 2 c-3 -9 -8 -14 -10 -11 -3 3 -2 9
2 15 9 16 15 13 8 -4z"/>
<path d="M1855 3440 c-3 -5 -1 -10 4 -10 6 0 11 5 11 10 0 6 -2 10 -4 10 -3 0
-8 -4 -11 -10z"/>
<path d="M1555 3381 c-3 -5 0 -13 6 -17 7 -4 9 -3 5 4 -3 5 0 13 6 15 9 4 10
6 1 6 -6 1 -14 -3 -18 -8z"/>
<path d="M1610 3380 c0 -5 5 -10 11 -10 5 0 7 5 4 10 -3 6 -8 10 -11 10 -2 0
-4 -4 -4 -10z"/>
<path d="M518 3264 c-4 -4 -38 -8 -75 -11 -96 -5 -168 -11 -168 -13 0 -2 -9
-4 -20 -6 -67 -10 -80 -13 -80 -14 0 -1 -13 -4 -29 -6 -16 -2 -32 -7 -35 -11
-3 -4 -13 -9 -21 -11 -37 -8 -81 -35 -69 -43 7 -4 19 0 28 8 10 11 16 12 19 4
2 -6 8 -9 13 -5 5 3 9 0 9 -7 0 -6 11 0 24 14 15 16 28 22 36 17 7 -5 19 -6
27 -3 7 3 13 0 13 -5 0 -6 -9 -9 -20 -7 -12 2 -18 0 -15 -6 4 -5 11 -7 16 -4
5 4 9 0 9 -7 1 -7 6 -4 13 7 7 11 19 19 27 19 46 -4 46 -4 26 -19 -18 -13 -17
-14 13 -10 21 2 29 0 25 -7 -5 -8 -1 -9 12 -4 15 6 16 5 7 -5 -10 -9 -15 -10
-27 0 -10 9 -16 9 -21 1 -4 -6 -4 -14 -1 -17 3 -4 6 -1 6 6 0 8 5 7 16 -3 8
-9 20 -14 25 -11 5 4 9 1 9 -4 0 -6 13 -11 30 -11 16 0 35 -6 42 -13 7 -8 21
-12 32 -9 10 3 17 1 14 -4 -3 -5 12 -10 35 -11 22 -2 44 -8 49 -15 4 -7 8 -10
8 -6 0 4 12 3 26 -2 14 -6 23 -6 20 -1 -3 5 1 12 10 15 8 3 13 2 9 -3 -3 -5 1
-16 9 -24 8 -8 13 -17 10 -20 -3 -3 3 -4 13 -3 11 0 17 -5 15 -13 -2 -11 0
-12 11 -3 9 8 17 8 24 1 7 -7 15 -5 27 6 9 9 16 12 16 7 0 -4 15 -7 33 -5 17
3 28 1 22 -4 -5 -4 -17 -17 -25 -27 -13 -18 -13 -19 0 -12 8 4 4 -2 -10 -14
-14 -12 -19 -19 -12 -15 10 5 14 -2 12 -30 -1 -3 6 -12 14 -21 8 -8 13 -21 10
-28 -3 -8 -1 -17 5 -21 6 -3 14 1 17 9 3 9 10 13 15 10 5 -3 7 -9 4 -14 -3 -5
0 -12 7 -16 7 -4 10 -3 5 1 -4 5 0 17 10 27 9 10 11 18 5 18 -6 0 -12 -5 -14
-12 -3 -7 -7 -5 -11 6 -4 10 -3 15 3 11 6 -3 10 -1 10 5 0 6 9 4 23 -5 13 -8
27 -12 30 -8 4 3 14 -2 23 -13 8 -10 12 -13 8 -5 -5 9 -3 12 4 7 7 -4 12 -1
12 6 1 8 4 7 10 -4 15 -25 -4 -69 -27 -62 -14 5 -15 4 -4 -4 12 -8 9 -15 -15
-36 -16 -15 -24 -26 -19 -25 23 3 25 -2 10 -25 -9 -14 -17 -41 -18 -60 -1 -24
-6 -35 -14 -31 -7 2 -12 1 -12 -3 3 -19 -2 -33 -10 -27 -5 3 -13 0 -17 -6 -4
-8 -9 -7 -15 2 -7 11 -9 11 -9 -1 0 -8 -11 -20 -25 -27 -19 -8 -24 -8 -19 0 3
7 -1 4 -9 -5 -8 -10 -19 -18 -24 -18 -6 0 -18 -10 -27 -22 -9 -13 -14 -16 -10
-8 7 12 5 13 -8 3 -8 -7 -19 -9 -23 -5 -5 4 -5 1 -1 -5 4 -7 2 -13 -4 -13 -6
0 -9 -4 -6 -9 6 -9 -22 -26 -36 -23 -4 1 -5 -4 -2 -12 3 -7 -7 -21 -23 -31
-31 -20 -51 -42 -92 -95 -14 -19 -28 -37 -32 -40 -13 -12 -17 -40 -6 -46 7 -4
9 -4 5 1 -4 4 10 24 30 43 20 20 37 39 37 42 0 4 8 14 17 23 12 12 18 14 21 4
3 -7 6 -4 6 6 1 11 6 15 13 11 6 -4 8 -3 5 3 -4 6 0 17 9 24 13 10 17 10 25
-2 8 -10 9 -8 4 8 -5 19 -3 22 11 16 13 -5 15 -3 9 8 -8 12 -6 12 8 0 13 -10
20 -11 30 -2 8 6 17 9 20 6 4 -3 5 -2 2 2 -8 11 -36 13 -29 2 3 -5 1 -9 -4 -9
-6 0 -12 6 -15 14 -4 10 0 13 14 11 16 -3 19 0 15 13 -6 16 -5 16 8 0 7 -10
19 -18 26 -18 9 0 10 4 2 13 -8 9 -8 17 0 27 9 13 9 13 5 0 -2 -8 2 -21 9 -28
8 -7 14 -9 14 -3 0 5 11 8 25 6 14 -1 25 2 25 6 0 5 -5 9 -12 9 -6 0 -8 3 -5
7 4 3 16 -2 28 -12 14 -13 22 -16 27 -8 5 8 12 8 25 -2 12 -9 14 -14 6 -17 -7
-2 -13 -12 -15 -21 -1 -9 2 -15 7 -11 5 3 7 9 5 13 -3 4 1 8 9 8 11 0 12 -5 3
-21 -10 -19 -10 -20 6 -7 10 8 14 21 10 33 -3 10 -2 17 3 16 16 -5 54 23 46
35 -5 9 -4 9 8 0 12 -10 14 -7 13 15 -3 38 -3 39 -14 22 -7 -11 -10 -11 -10
-2 0 8 -5 10 -12 6 -8 -4 -10 -3 -5 2 8 9 12 10 39 13 6 0 8 4 5 8 -4 3 2 13
13 20 11 8 17 19 14 25 -4 6 -1 9 7 6 8 -3 20 2 27 11 8 9 11 11 8 5 -3 -6 1
-11 9 -11 8 0 12 4 9 9 -3 4 0 8 6 8 6 0 9 4 6 9 -3 5 1 12 10 15 8 3 13 2 10
-2 -3 -5 1 -9 9 -9 8 0 12 4 9 9 -7 11 14 38 29 38 6 0 2 -6 -8 -14 -18 -13
-17 -14 12 -13 17 1 29 5 26 9 -2 5 4 11 14 14 10 3 26 10 36 15 10 5 22 7 27
4 6 -4 10 -1 10 5 0 6 5 8 10 5 6 -3 10 -1 10 5 0 7 7 9 16 6 8 -3 13 -2 10 3
-8 12 21 34 34 26 5 -3 10 -2 10 4 0 5 -3 11 -7 14 -5 2 -2 2 5 0 21 -5 64 28
57 45 -5 13 -3 13 12 1 11 -9 14 -10 9 -1 -4 7 -1 12 9 12 9 0 14 4 11 9 -3 5
4 11 15 14 12 3 18 10 14 16 -4 7 0 8 11 4 13 -5 16 -3 11 10 -3 9 -2 19 4 22
5 4 9 3 8 -2 -4 -22 3 -25 17 -7 8 10 13 13 9 7 -4 -8 0 -14 9 -14 36 -3 41
-6 38 -19 -2 -10 0 -11 11 -2 8 7 16 10 19 7 2 -3 25 -5 51 -6 26 -1 47 -6 47
-11 0 -4 7 -8 15 -8 8 0 15 -4 15 -10 0 -5 8 -10 17 -10 13 0 11 6 -11 29 -25
26 -26 30 -11 45 10 10 12 16 5 16 -7 0 -9 7 -6 16 3 8 2 12 -4 9 -11 -7 -18
6 -23 44 -2 13 -11 29 -20 36 -9 7 -17 20 -17 29 0 10 -4 14 -10 11 -5 -3 -10
-2 -10 3 0 11 -50 35 -58 27 -3 -3 -14 2 -24 12 -10 9 -18 11 -18 5 0 -5 -9
-8 -20 -5 -11 3 -20 10 -20 17 0 6 -5 4 -10 -4 -5 -8 -10 -10 -10 -5 0 6 -17
11 -37 12 -21 0 -39 6 -41 12 -2 6 -8 11 -13 11 -6 0 -8 -4 -5 -8 3 -5 -16 -6
-42 -2 -47 6 -142 60 -142 80 0 6 -8 10 -19 10 -10 0 -26 10 -35 23 -9 12 -14
16 -11 10 7 -15 0 -16 -24 -3 -10 5 -40 12 -67 15 -27 4 -60 9 -74 11 -73 14
-379 22 -397 11 -6 -4 -13 -2 -15 4 -2 5 -7 7 -10 3z m252 -358 c0 -3 -4 -8
-10 -11 -5 -3 -10 -1 -10 4 0 6 5 11 10 11 6 0 10 -2 10 -4z m897 -38 c2 -17
0 -19 -7 -8 -5 8 -6 18 -4 22 8 12 10 10 11 -14z m-917 -393 c0 -8 -2 -15 -4
-15 -2 0 -6 7 -10 15 -3 8 -1 15 4 15 6 0 10 -7 10 -15z m-27 -14 c-2 -6 2
-11 7 -11 6 0 10 -4 10 -8 0 -5 -6 -9 -14 -9 -7 0 -13 7 -11 16 1 9 -3 20 -9
24 -7 6 -6 7 4 4 8 -2 14 -10 13 -16z m169 12 c-6 -2 -10 -9 -6 -14 3 -5 0 -9
-5 -9 -12 0 -14 13 -4 23 3 4 11 7 17 6 6 0 5 -3 -2 -6z m-78 -11 c3 -5 -1 -9
-9 -9 -8 0 -12 4 -9 9 3 4 7 8 9 8 2 0 6 -4 9 -8z m41 -22 c3 -5 2 -10 -4 -10
-5 0 -13 5 -16 10 -3 6 -2 10 4 10 5 0 13 -4 16 -10z"/>
<path d="M130 3165 c0 -5 5 -17 10 -25 5 -8 10 -10 10 -5 0 6 -5 17 -10 25 -5
8 -10 11 -10 5z"/>
<path d="M592 2882 c-7 -9 -10 -11 -6 -3 5 9 3 12 -5 7 -6 -4 -9 -11 -6 -16 3
-5 -1 -15 -9 -23 -8 -8 -12 -17 -9 -21 3 -3 -2 -8 -11 -12 -9 -3 -13 -10 -10
-15 3 -5 -2 -9 -10 -9 -9 0 -16 -5 -16 -11 0 -5 6 -7 13 -4 6 4 4 0 -5 -8 -10
-8 -15 -17 -11 -20 3 -4 1 -7 -5 -7 -7 0 -11 -6 -10 -12 2 -7 -4 -11 -12 -10
-8 2 -12 1 -8 -3 9 -9 -11 -65 -24 -65 -5 0 -7 -4 -4 -9 9 -14 -5 -42 -17 -34
-6 3 -7 1 -3 -5 4 -6 2 -21 -4 -32 -6 -11 -20 -53 -30 -93 -11 -39 -22 -82
-26 -94 -3 -13 -2 -23 4 -23 5 0 13 16 16 35 4 19 12 35 18 35 6 0 5 7 -3 17
-10 11 -10 14 -1 9 8 -5 12 0 12 14 0 15 5 20 14 17 8 -3 13 1 12 11 0 10 5
16 14 14 10 -3 9 3 -5 19 -11 12 -15 20 -10 17 6 -3 19 4 30 15 12 11 14 17 5
13 -9 -5 -8 -2 3 7 9 8 17 20 17 27 0 6 9 25 21 41 11 16 17 33 14 39 -10 16
2 12 21 -7 17 -17 18 -17 11 1 -6 14 -4 17 10 12 17 -6 17 -5 0 8 -11 8 -14
15 -7 18 6 2 12 11 14 20 1 10 6 21 11 25 4 4 5 3 2 -3 -4 -7 2 -14 13 -17 11
-3 18 -1 15 3 -7 11 30 32 39 22 4 -3 2 7 -4 23 -6 16 -17 33 -23 37 -9 6 -9
8 1 8 6 0 12 8 13 18 0 14 2 14 8 -3 5 -11 6 -25 4 -31 -2 -6 4 -17 14 -25 16
-12 17 -12 6 2 -7 9 -11 18 -8 20 2 3 0 21 -5 40 -11 39 -47 51 -68 21z m19
-115 c-10 -9 -11 -8 -5 6 3 10 9 15 12 12 3 -3 0 -11 -7 -18z"/>
<path d="M835 2830 c-3 -5 -1 -10 4 -10 6 0 11 5 11 10 0 6 -2 10 -4 10 -3 0
-8 -4 -11 -10z"/>
<path d="M906 2815 c-9 -26 -7 -32 5 -12 6 10 9 21 6 23 -2 3 -7 -2 -11 -11z"/>
<path d="M870 2799 c0 -5 5 -7 10 -4 6 3 10 8 10 11 0 2 -4 4 -10 4 -5 0 -10
-5 -10 -11z"/>
<path d="M583 2725 c0 -8 4 -12 9 -9 5 3 6 10 3 15 -9 13 -12 11 -12 -6z"/>
<path d="M526 2661 c-4 -5 -2 -12 3 -15 5 -4 12 -2 15 3 4 5 2 12 -3 15 -5 4
-12 2 -15 -3z"/>
<path d="M505 2630 c-3 -5 -1 -18 5 -27 9 -15 10 -14 4 6 -4 17 -3 21 6 16 9
-5 11 -4 6 3 -9 15 -13 15 -21 2z"/>
<path d="M1819 2593 c-13 -16 -12 -17 4 -4 16 13 21 21 13 21 -2 0 -10 -8 -17
-17z"/>
<path d="M955 2528 c-9 -14 -11 -24 -5 -26 6 -2 7 -9 4 -14 -4 -7 -2 -8 4 -4
6 4 9 13 5 22 -3 8 3 21 13 29 11 8 14 15 7 15 -6 0 -19 -10 -28 -22z"/>
<path d="M3600 2360 c0 -5 5 -10 11 -10 5 0 7 5 4 10 -3 6 -8 10 -11 10 -2 0
-4 -4 -4 -10z"/>
<path d="M824 2354 c3 -3 -4 -16 -15 -27 -12 -13 -15 -23 -9 -25 7 -3 5 -9 -5
-16 -9 -6 -17 -20 -19 -30 -1 -9 -9 -22 -17 -27 -8 -5 -9 -9 -3 -9 7 0 0 -24
-16 -57 -16 -32 -35 -80 -43 -108 -8 -27 -18 -58 -22 -67 -5 -12 -3 -18 6 -18
7 0 10 3 6 6 -3 3 3 25 13 49 10 24 16 46 13 49 -4 3 -1 6 5 6 7 0 12 7 12 16
0 8 12 41 27 72 14 31 28 66 30 77 2 10 8 22 15 26 6 4 11 17 12 30 1 13 7 23
13 22 12 -3 12 23 0 32 -4 3 -5 2 -3 -1z"/>
<path d="M353 2344 c3 -3 1 -18 -4 -33 -6 -15 -6 -22 -1 -16 17 18 24 55 11
55 -7 0 -10 -3 -6 -6z"/>
<path d="M3473 2325 c0 -8 4 -12 9 -9 5 3 6 10 3 15 -9 13 -12 11 -12 -6z"/>
<path d="M3588 2333 c7 -3 16 -2 19 1 4 3 -2 6 -13 5 -11 0 -14 -3 -6 -6z"/>
<path d="M3436 2308 c3 -5 10 -6 15 -3 13 9 11 12 -6 12 -8 0 -12 -4 -9 -9z"/>
<path d="M395 2190 c4 -7 3 -15 -2 -19 -14 -8 -83 -118 -83 -131 0 -5 -4 -18
-9 -28 -10 -20 -33 -76 -32 -79 0 -2 -7 -19 -15 -39 -8 -20 -13 -38 -11 -41 3
-2 20 34 37 82 18 47 37 88 41 91 5 3 9 14 9 25 0 10 9 27 19 36 11 9 18 19
16 23 -2 3 7 19 21 35 27 32 29 41 12 51 -7 5 -8 3 -3 -6z"/>
<path d="M3750 2130 c0 -5 5 -10 11 -10 5 0 7 5 4 10 -3 6 -8 10 -11 10 -2 0
-4 -4 -4 -10z"/>
<path d="M1476 1958 c3 -5 10 -6 15 -3 13 9 11 12 -6 12 -8 0 -12 -4 -9 -9z"/>
<path d="M661 1943 c-18 -35 -30 -94 -19 -91 6 2 12 13 14 24 1 10 7 34 12 52
12 35 8 42 -7 15z"/>
<path d="M1450 1940 c0 -5 5 -10 11 -10 5 0 7 5 4 10 -3 6 -8 10 -11 10 -2 0
-4 -4 -4 -10z"/>
<path d="M2530 1885 c13 -14 25 -25 27 -25 9 0 -33 49 -41 50 -5 0 1 -11 14
-25z"/>
<path d="M627 1793 c-9 -51 -2 -53 11 -3 5 22 6 40 2 40 -4 0 -10 -17 -13 -37z"/>
<path d="M2547 1799 c7 -7 15 -10 18 -7 3 3 -2 9 -12 12 -14 6 -15 5 -6 -5z"/>
<path d="M386 1649 c3 -24 7 -52 10 -61 3 -10 7 -30 10 -44 4 -24 19 -86 44
-182 4 -18 16 -44 25 -58 9 -15 12 -23 6 -20 -6 4 -11 5 -11 1 0 -3 12 -10 26
-15 23 -9 24 -12 13 -27 -9 -11 -10 -14 -2 -10 8 5 20 -7 35 -35 24 -47 27
-58 19 -73 -11 -20 -7 -52 5 -52 10 0 11 4 3 13 -7 9 -6 14 3 20 7 4 10 4 6
-1 -4 -4 -3 -14 3 -22 6 -7 8 -13 4 -13 -4 0 -2 -7 5 -15 11 -13 10 -14 -4 -9
-9 3 -16 1 -16 -6 0 -6 4 -9 8 -6 15 9 33 -10 38 -40 3 -16 12 -35 21 -41 10
-8 12 -13 5 -13 -7 0 -12 -4 -12 -10 0 -5 8 -7 18 -4 14 5 14 3 -3 -12 -16
-14 -17 -16 -2 -10 47 17 52 18 38 8 -15 -11 -6 -36 10 -26 5 3 8 0 7 -8 -2
-7 2 -12 9 -11 13 3 12 -22 -2 -34 -4 -4 -5 -2 0 6 6 10 4 12 -5 6 -9 -6 -11
-4 -5 6 5 8 4 10 0 6 -20 -17 -13 -35 11 -31 15 3 24 0 24 -8 0 -9 4 -8 11 2
9 13 10 13 6 0 -2 -8 -11 -14 -21 -12 -9 2 -16 -2 -16 -8 0 -6 5 -8 10 -5 6 3
10 1 10 -4 0 -6 -5 -11 -12 -11 -6 0 -8 -3 -5 -6 4 -4 13 -1 22 6 12 10 15 10
15 0 0 -9 4 -9 17 1 14 12 14 10 -2 -14 -10 -15 -20 -25 -23 -23 -2 3 -14 1
-25 -5 -15 -8 -18 -8 -12 1 4 7 -5 4 -21 -6 -15 -11 -25 -14 -21 -7 4 6 2 15
-4 19 -7 4 -9 3 -5 -4 7 -12 -10 -25 -36 -27 -10 -1 -14 3 -11 9 4 6 -1 5 -10
-3 -9 -7 -30 -11 -46 -9 -17 2 -28 2 -26 -2 2 -3 -48 -6 -112 -5 -63 0 -120
-3 -126 -7 -11 -7 4 -12 25 -9 4 0 19 -4 33 -9 29 -11 117 -14 158 -5 20 4 27
2 27 -10 0 -8 -5 -15 -11 -15 -5 0 -8 4 -5 8 3 5 -1 9 -9 9 -20 0 -19 -13 1
-21 8 -3 12 -12 9 -18 -4 -7 0 -5 8 5 8 9 20 17 26 17 7 0 9 5 6 10 -3 6 -1
10 4 10 10 0 13 -8 10 -27 -2 -13 35 -27 39 -14 5 16 42 35 42 21 0 -5 -6 -10
-13 -10 -8 0 -14 -7 -14 -15 0 -11 4 -12 14 -4 9 9 13 8 13 0 0 -7 5 -9 10 -6
6 4 8 11 5 16 -3 5 1 6 9 3 9 -3 16 -14 17 -23 0 -12 2 -12 9 4 8 18 9 18 10
-5 1 -22 2 -23 9 -6 7 18 8 18 25 -5 l18 -24 -7 25 c-5 23 -5 23 8 8 14 -18
33 -25 23 -9 -3 5 2 15 12 22 15 13 16 12 4 -3 -14 -18 -3 -31 30 -33 14 -1
17 3 12 19 -4 15 -3 17 4 8 12 -18 12 -18 42 -3 23 11 24 11 6 -3 -10 -9 -23
-13 -29 -9 -6 3 -7 1 -3 -5 7 -11 31 -7 53 10 12 9 30 -8 19 -19 -3 -4 -6 -1
-6 6 0 7 -5 9 -10 6 -13 -8 -13 -25 1 -25 13 0 40 -26 33 -32 -2 -3 2 -11 11
-18 8 -7 15 -9 15 -6 0 4 10 1 23 -6 26 -14 45 -19 70 -19 9 0 17 -5 17 -10 0
-6 4 -8 9 -4 5 3 15 0 23 -7 23 -22 95 -52 139 -57 5 0 8 -5 5 -10 -3 -4 8 -7
25 -5 17 2 43 -3 59 -11 16 -8 44 -15 63 -15 18 0 37 -3 41 -7 12 -12 66 -11
67 1 0 6 4 2 9 -9 7 -16 9 -17 9 -3 1 21 -11 29 -29 18 -15 -9 -42 -2 -35 9 2
4 -2 8 -10 8 -8 0 -11 -5 -8 -10 3 -6 1 -7 -6 -3 -6 4 -9 12 -6 17 4 5 1 9 -5
9 -6 0 -8 5 -4 11 4 8 9 7 15 -2 5 -8 9 -10 9 -5 0 5 6 4 13 -1 6 -6 24 -9 39
-8 15 1 25 -2 22 -7 -3 -4 -1 -8 5 -8 5 0 11 5 13 12 2 6 12 12 22 14 13 2 14
-1 7 -10 -6 -7 -7 -16 -3 -20 4 -4 1 -6 -7 -4 -7 1 -15 -5 -16 -14 -2 -10 1
-18 6 -18 5 0 9 3 9 8 0 4 9 18 20 32 15 18 18 20 13 6 -5 -14 -3 -17 7 -11 9
5 11 4 6 -4 -4 -6 -11 -9 -16 -6 -4 3 -10 -2 -13 -10 -5 -11 -1 -12 16 -6 24
9 50 4 43 -8 -3 -4 2 -8 10 -8 9 0 13 6 9 16 -3 9 4 5 16 -9 11 -14 18 -19 14
-12 -3 6 -2 12 4 12 6 0 8 8 4 18 -3 9 -3 14 1 10 4 -3 9 -14 10 -25 2 -13 10
-17 31 -15 16 2 31 -2 36 -10 7 -10 9 -10 9 0 0 8 5 10 13 5 18 -11 38 -13 31
-2 -3 5 2 9 10 9 9 0 16 -6 16 -12 0 -9 3 -8 9 2 6 8 7 18 5 22 -3 4 0 8 6 8
7 0 10 -7 6 -15 -3 -8 -1 -16 4 -16 16 -2 50 -1 53 1 1 1 13 3 26 6 21 4 22 3
10 -13 -12 -16 -12 -17 1 -7 8 6 49 10 90 9 41 -1 84 1 95 6 19 7 19 8 -2 8
-13 1 -23 7 -23 14 0 8 -3 8 -8 1 -8 -12 -51 -13 -69 -1 -7 5 -13 4 -13 -2 0
-13 -24 -8 -46 9 -10 8 -15 10 -12 5 8 -13 -84 -11 -104 1 -7 5 -22 9 -33 10
-11 0 -34 5 -50 9 -39 11 -45 12 -78 14 -16 0 -26 5 -22 10 3 5 0 13 -6 17 -8
4 -9 3 -5 -4 9 -16 -7 -15 -22 0 -8 8 -12 8 -12 1 0 -14 -32 -11 -45 4 -5 6
-25 14 -44 17 -19 2 -37 8 -40 13 -3 4 -13 9 -21 11 -8 2 -24 11 -34 20 -15
13 -18 14 -11 2 6 -12 5 -13 -6 -2 -7 6 -22 12 -32 12 -13 0 -17 5 -14 14 4
10 1 13 -8 10 -8 -3 -23 1 -35 9 -18 12 -18 15 -5 20 8 4 15 2 15 -3 0 -5 7
-7 16 -3 10 4 12 9 5 16 -7 7 -5 14 7 24 16 12 16 13 0 7 -11 -4 -18 -1 -18 7
0 7 3 9 7 6 3 -4 13 -1 21 6 13 9 14 9 8 0 -9 -17 6 -17 22 -1 10 10 15 10 21
-1 7 -10 10 -10 13 -1 5 15 48 20 64 8 7 -5 17 -1 25 9 8 9 9 14 4 11 -6 -4
-17 -3 -24 1 -9 6 -4 9 13 9 14 0 26 -4 26 -9 0 -5 7 -5 17 -2 12 5 14 3 8 -7
-5 -9 -4 -11 4 -6 6 4 9 11 6 16 -3 5 -1 11 5 15 5 3 10 2 10 -2 0 -5 9 -9 19
-9 11 0 17 4 15 8 -3 4 -1 8 5 8 5 0 12 -6 14 -12 4 -8 6 -7 6 4 1 10 8 15 19
13 9 -1 22 2 29 7 7 5 17 7 23 3 5 -3 10 -1 10 5 0 6 4 9 8 6 5 -3 19 1 33 8
13 7 29 13 34 15 26 7 8 17 -20 11 -37 -8 -85 -9 -80 0 3 5 -6 3 -21 -4 -17
-10 -35 -11 -54 -6 -16 5 -31 5 -35 2 -7 -7 -30 -9 -192 -12 -115 -2 -122 -3
-127 -24 -5 -18 -8 -19 -16 -6 -9 13 -14 8 -12 -12 1 -3 -6 -12 -15 -20 -10
-8 -14 -8 -10 -1 4 6 2 15 -4 19 -9 5 -10 -4 -6 -32 3 -21 3 -30 0 -20 -3 12
-8 15 -12 8 -4 -7 -12 -3 -20 11 -13 21 -13 21 4 7 17 -14 18 -13 12 2 -3 10
-2 20 4 23 5 4 6 12 2 18 -4 8 -1 7 9 -1 11 -9 18 -10 23 -2 3 5 2 10 -3 10
-5 0 -9 7 -9 16 0 14 2 15 11 2 18 -24 25 -24 41 0 11 15 24 21 39 18 20 -4
23 0 22 27 -1 22 3 31 12 29 8 -1 12 3 9 10 -8 23 11 47 33 41 11 -3 17 -10
13 -16 -3 -5 -1 -7 5 -3 6 3 9 19 6 34 l-4 27 13 -24 c12 -21 15 -21 21 -6 4
11 13 15 25 12 13 -3 18 0 16 12 -2 9 -4 20 -4 24 -1 5 -6 5 -12 1 -8 -4 -7
-9 2 -16 10 -6 7 -7 -10 -3 -15 5 -21 3 -17 -3 3 -6 3 -13 -2 -16 -5 -3 -9 1
-9 9 0 8 18 27 39 41 21 15 38 31 38 37 0 6 3 7 7 4 3 -4 13 -1 22 7 9 8 23
16 31 18 8 2 22 10 30 19 8 8 23 18 33 22 11 4 15 12 11 18 -5 8 -3 9 6 4 10
-6 4 -15 -20 -35 -24 -20 -30 -29 -20 -35 9 -5 11 -4 6 3 -4 7 -3 12 2 12 17
0 51 41 46 55 -4 10 0 15 13 15 10 0 25 9 33 20 8 11 20 20 27 20 7 0 13 3 13
8 0 4 14 13 30 20 17 8 27 18 23 25 -4 7 0 8 13 3 10 -4 15 -4 11 0 -4 4 0 15
9 25 15 17 15 18 -4 16 -11 0 -18 -5 -16 -9 3 -4 -1 -8 -9 -8 -7 0 -23 -9 -35
-20 -12 -11 -24 -20 -28 -20 -3 0 -19 -9 -35 -21 -16 -11 -29 -18 -29 -15 0 4
-18 -5 -39 -18 -21 -14 -42 -22 -45 -19 -3 4 -6 1 -6 -6 0 -7 -4 -9 -10 -6 -6
4 -7 -1 -3 -11 4 -11 3 -15 -5 -10 -6 3 -14 2 -17 -4 -5 -8 -12 -7 -23 2 -9 7
-13 8 -9 2 4 -7 -7 -18 -27 -28 -19 -9 -37 -24 -40 -33 -6 -15 -8 -15 -16 -3
-6 9 -10 10 -10 3 0 -6 -9 -10 -20 -8 -11 2 -20 -1 -20 -6 0 -6 -4 -7 -10 -4
-5 3 -10 1 -10 -4 0 -6 -3 -10 -7 -10 -25 4 -53 -2 -48 -11 6 -9 -22 -14 -77
-13 -10 0 -18 -4 -18 -8 0 -10 -56 -25 -117 -32 -18 -2 -39 -10 -47 -16 -8 -7
-20 -10 -26 -6 -5 3 -10 1 -10 -4 0 -9 -108 -9 -130 -1 -3 1 -9 2 -13 1 -5 -1
-18 10 -29 24 -11 14 -25 25 -31 25 -13 0 -87 78 -87 91 0 5 -4 8 -9 7 -5 -2
-9 0 -10 5 -1 4 -9 16 -18 26 -10 10 -35 37 -55 59 -21 23 -38 44 -38 47 0 4
-12 26 -27 49 -16 22 -35 55 -43 71 -8 17 -19 33 -23 36 -5 4 -10 18 -10 32
-1 14 -4 25 -7 24 -3 -1 -5 1 -5 4 0 3 -8 13 -18 23 -9 10 -15 22 -12 27 4 5
2 9 -3 9 -5 0 -13 10 -17 23 -4 12 -9 29 -12 37 -2 8 -5 23 -6 32 -1 9 -3 15
-6 13 -5 -6 -49 120 -55 158 -8 51 -26 56 -20 6z m919 -798 c3 -5 2 -12 -3
-15 -5 -3 -9 1 -9 9 0 17 3 19 12 6z m142 -16 c0 -8 -4 -12 -9 -9 -5 3 -6 10
-3 15 9 13 12 11 12 -6z m-82 -34 c3 -5 2 -12 -3 -15 -5 -3 -9 1 -9 9 0 17 3
19 12 6z m16 -24 c-10 -9 -11 -8 -5 6 3 10 9 15 12 12 3 -3 0 -11 -7 -18z
m-16 -16 c3 -5 2 -12 -3 -15 -5 -3 -9 1 -9 9 0 17 3 19 12 6z m-35 -41 c0 -5
-5 -10 -11 -10 -5 0 -7 5 -4 10 3 6 8 10 11 10 2 0 4 -4 4 -10z m50 6 c0 -3
-4 -8 -10 -11 -5 -3 -10 -1 -10 4 0 6 5 11 10 11 6 0 10 -2 10 -4z m-775 -66
c3 -5 1 -10 -4 -10 -6 0 -11 5 -11 10 0 6 2 10 4 10 3 0 8 -4 11 -10z m714
-67 c-3 -20 2 -27 10 -14 8 13 12 13 27 0 16 -13 17 -12 10 6 -6 16 -5 17 5 8
20 -20 19 -40 -2 -38 -10 1 -22 4 -25 8 -4 4 -13 2 -19 -3 -8 -7 -18 -3 -31
12 -10 12 -14 18 -7 15 6 -4 14 -3 18 3 7 12 16 13 14 3z m-343 -12 c-4 -5 0
-11 6 -14 7 -2 10 -8 6 -12 -4 -4 -14 0 -22 8 -12 12 -13 17 -3 20 18 8 19 8
13 -2z m35 -45 c-13 -15 -35 -16 -48 -1 -4 4 2 5 14 2 13 -3 26 -1 29 4 3 5 8
9 11 9 3 0 0 -6 -6 -14z m139 -61 c0 -8 -2 -15 -4 -15 -2 0 -6 7 -10 15 -3 8
-1 15 4 15 6 0 10 -7 10 -15z m50 -15 c18 -12 2 -12 -25 0 -13 6 -15 9 -5 9 8
0 22 -4 30 -9z m65 -20 c0 -3 39 -12 57 -13 9 -1 14 -5 11 -10 -2 -4 -14 -5
-25 -1 -15 5 -19 3 -13 -7 5 -8 -3 -4 -17 9 -13 12 -27 20 -30 16 -3 -3 -9 -1
-12 4 -3 6 2 9 11 7 10 -2 18 -4 18 -5z m145 -46 c0 -8 -4 -14 -8 -14 -4 0 -8
9 -8 19 0 11 4 17 8 15 4 -3 8 -12 8 -20z m235 -24 c3 -5 1 -10 -4 -10 -6 0
-11 5 -11 10 0 6 2 10 4 10 3 0 8 -4 11 -10z m105 -15 c0 -1 -6 -7 -13 -13
-10 -8 -13 -6 -13 7 0 11 6 17 13 14 7 -3 13 -6 13 -8z m45 -7 c5 4 5 1 1 -6
-6 -10 -11 -10 -22 -1 -8 6 -14 14 -14 16 0 3 6 0 13 -6 8 -6 18 -7 22 -3z
m35 -7 c0 -6 -4 -13 -10 -16 -5 -3 -10 1 -10 9 0 9 5 16 10 16 6 0 10 -4 10
-9z"/>
<path d="M2109 1551 c-13 -10 -28 -19 -32 -19 -16 -1 -20 -12 -5 -12 8 0 28
11 44 25 34 29 28 34 -7 6z"/>
<path d="M2139 1543 c-13 -16 -12 -17 4 -4 9 7 17 15 17 17 0 8 -8 3 -21 -13z"/>
<path d="M1021 1494 c1 -5 -1 -18 -5 -29 -13 -34 -19 -50 -22 -60 -9 -25 -36
-122 -39 -140 -3 -11 -9 -21 -14 -23 -5 -2 -7 -12 -4 -22 3 -11 1 -20 -4 -20
-5 0 -9 -8 -9 -17 -1 -10 -4 -29 -7 -43 -17 -70 -29 -117 -34 -130 -13 -34 -8
-51 22 -79 26 -24 34 -26 48 -16 9 7 17 16 17 20 0 4 -6 2 -13 -4 -19 -15 -30
-1 -14 17 7 10 8 13 1 9 -7 -4 -13 2 -16 16 -4 20 -1 23 24 19 15 -2 28 -8 28
-12 0 -4 10 -10 23 -13 12 -4 26 -7 31 -9 5 -2 10 5 12 15 1 9 -2 14 -8 11 -6
-4 -5 2 1 15 7 12 8 21 2 21 -5 0 -8 8 -6 18 1 9 -2 27 -6 40 -6 15 -5 21 1
17 6 -4 7 2 1 18 -5 13 -7 46 -4 73 3 27 6 79 6 116 0 46 3 65 11 61 6 -4 6 0
-1 8 -13 16 -13 75 0 95 4 7 0 18 -9 25 -8 7 -14 8 -13 3z m-36 -302 c-3 -3
-11 0 -18 7 -9 10 -8 11 6 5 10 -3 15 -9 12 -12z m-20 -42 c0 -16 -3 -30 -8
-30 -6 0 -5 37 2 58 4 10 7 -3 6 -28z m5 -135 c0 -2 -9 -3 -19 -2 -11 0 -18 5
-15 9 4 6 34 0 34 -7z m-58 -59 c7 4 8 2 4 -5 -9 -13 -26 -5 -25 12 0 9 2 8 6
-1 2 -6 10 -9 15 -6z"/>
<path d="M1790 1340 c0 -5 7 -10 16 -10 8 0 12 5 9 10 -3 6 -10 10 -16 10 -5
0 -9 -4 -9 -10z"/>
<path d="M2780 1331 c0 -5 5 -13 10 -16 6 -3 10 -2 10 4 0 5 -4 13 -10 16 -5
3 -10 2 -10 -4z"/>
<path d="M2675 1251 c-3 -7 -4 -16 -1 -18 5 -5 46 19 46 27 0 12 -40 5 -45 -9z"/>
<path d="M510 1211 c8 -6 11 -11 6 -11 -5 0 -2 -8 6 -17 9 -10 14 -25 13 -34
-2 -9 3 -16 10 -16 18 0 13 22 -11 48 -10 11 -18 24 -16 27 2 4 -2 8 -10 10
-9 2 -8 0 2 -7z"/>
<path d="M593 1005 c0 -8 4 -12 9 -9 5 3 6 10 3 15 -9 13 -12 11 -12 -6z"/>
<path d="M384 948 c-3 -4 0 -8 5 -8 6 0 27 -17 47 -37 20 -21 33 -32 29 -25
-4 7 0 12 9 12 9 0 15 -3 15 -7 -4 -22 3 -33 17 -33 14 0 14 3 4 15 -11 13
-10 14 3 10 8 -4 22 -21 31 -38 8 -18 16 -28 16 -23 0 6 6 3 13 -6 6 -8 21
-18 31 -22 16 -5 17 -4 6 9 -7 8 -17 12 -23 8 -6 -3 -7 -1 -3 5 11 18 21 14
36 -13 11 -20 16 -22 33 -13 18 9 19 12 5 22 -8 6 -13 16 -11 23 2 6 -1 15 -8
19 -8 5 -10 3 -4 -7 8 -12 6 -12 -8 0 -9 7 -14 18 -10 24 4 6 1 7 -6 3 -8 -5
-14 0 -18 14 -4 13 -16 23 -34 27 -18 3 -26 10 -22 17 4 6 -1 5 -10 -3 -13
-10 -17 -10 -17 -1 0 9 -4 9 -17 -1 -9 -8 -14 -9 -11 -4 7 12 -91 45 -98 33z"/>
<path d="M1620 939 c0 -7 -3 -9 -6 -6 -4 4 -20 -5 -36 -18 -16 -14 -34 -25
-39 -25 -6 0 -7 -4 -4 -10 3 -5 11 -10 16 -10 6 0 7 5 4 10 -3 6 1 10 9 10 9
0 16 5 16 11 0 5 5 7 10 4 6 -4 10 -3 9 2 -3 18 2 27 9 17 5 -9 10 -8 19 2 8
8 9 15 3 19 -6 3 -10 1 -10 -6z"/>
<path d="M986 923 c-6 -14 -5 -15 5 -6 7 7 10 15 7 18 -3 3 -9 -2 -12 -12z"/>
<path d="M949 893 c-13 -16 -12 -17 4 -4 9 7 17 15 17 17 0 8 -8 3 -21 -13z"/>
<path d="M3175 900 c3 -5 8 -10 11 -10 2 0 4 5 4 10 0 6 -5 10 -11 10 -5 0 -7
-4 -4 -10z"/>
<path d="M652 878 c2 -6 12 -12 22 -14 14 -2 15 0 5 12 -14 17 -32 19 -27 2z"/>
<path d="M520 845 c0 -5 5 -17 10 -25 5 -8 10 -10 10 -5 0 6 -5 17 -10 25 -5
8 -10 11 -10 5z"/>
<path d="M3238 829 c-15 -16 -15 -19 -3 -19 8 0 15 5 15 11 0 5 4 7 10 4 6 -3
7 1 4 9 -3 9 -7 16 -8 15 0 0 -9 -9 -18 -20z"/>
<path d="M1419 799 c-1 -8 -2 -21 -3 -29 0 -8 -7 -14 -13 -12 -14 2 -18 -14
-5 -21 11 -6 37 26 37 45 0 21 -15 36 -16 17z"/>
<path d="M615 740 c3 -5 8 -10 11 -10 2 0 4 5 4 10 0 6 -5 10 -11 10 -5 0 -7
-4 -4 -10z"/>
<path d="M2415 669 c-4 -5 -4 -13 -1 -16 3 -4 6 0 6 8 0 11 2 11 10 -1 6 -9
10 -10 10 -3 0 17 -17 25 -25 12z"/>
<path d="M2485 671 c-6 -11 13 -26 22 -17 4 3 1 6 -6 6 -7 0 -9 5 -6 10 3 6 4
10 1 10 -3 0 -7 -4 -11 -9z"/>
<path d="M2455 659 c-4 -6 -5 -12 -2 -15 2 -3 7 2 10 11 7 17 1 20 -8 4z"/>
<path d="M555 639 c-4 -6 -5 -12 -2 -15 2 -3 7 2 10 11 7 17 1 20 -8 4z"/>
<path d="M1575 600 c-3 -5 -1 -10 4 -10 6 0 11 5 11 10 0 6 -2 10 -4 10 -3 0
-8 -4 -11 -10z"/>
<path d="M1515 591 c-3 -5 -2 -12 3 -15 5 -3 9 1 9 9 0 17 -3 19 -12 6z"/>
<path d="M1477 569 c7 -7 15 -10 18 -7 3 3 -2 9 -12 12 -14 6 -15 5 -6 -5z"/>
<path d="M1430 520 c0 -5 5 -10 11 -10 5 0 7 5 4 10 -3 6 -8 10 -11 10 -2 0
-4 -4 -4 -10z"/>
<path d="M929 489 c-9 -17 -8 -20 3 -17 17 6 81 -90 73 -110 -3 -10 0 -12 10
-8 9 3 15 0 15 -8 0 -8 7 -17 16 -20 9 -4 14 -13 10 -22 -3 -8 -2 -13 2 -10 5
3 16 -4 25 -15 9 -10 14 -19 12 -19 -3 0 5 -11 17 -24 28 -29 32 -27 17 10 -7
16 -13 34 -15 39 -1 6 -14 40 -28 77 -13 36 -22 68 -20 71 3 3 -7 7 -21 11
-14 4 -25 11 -25 17 0 6 -5 7 -12 3 -8 -5 -9 -2 -5 9 3 9 1 19 -5 23 -6 4 -8
3 -4 -4 3 -6 2 -13 -4 -17 -5 -3 -10 -2 -10 4 0 6 -9 15 -20 21 -16 8 -21 6
-31 -11z"/>
<path d="M1034 468 c1 -7 16 -13 32 -14 16 -1 23 0 16 3 -6 3 -9 9 -6 15 4 6
-1 6 -14 -1 -14 -7 -22 -7 -25 -1 -3 6 -4 5 -3 -2z"/>
<path d="M1100 460 c0 -5 5 -10 11 -10 5 0 7 5 4 10 -3 6 -8 10 -11 10 -2 0
-4 -4 -4 -10z"/>
</g>
</svg>
